<svg width="11" height="16" viewBox="0 0 11 16" fill="none" xmlns="http://www.w3.org/2000/svg">
<g clip-path="url(#clip0_1_42)">
<path d="M8.68046 12.9234H0.0102304C0.0102304 14.1147 0.976999 15.0739 2.17907 15.0739H8.68046C9.87741 15.0739 10.8442 14.1097 10.8442 12.9234V4.07894C10.8442 4.03855 10.8084 3.99817 10.7675 3.99817H8.75719C8.71626 3.99817 8.68046 4.0335 8.68046 4.07894V12.9234ZM8.68046 0C9.87741 0 10.8442 0.964204 10.8442 2.15558H2.17395V11C2.17395 11.0404 2.13814 11.0808 2.09211 11.0808H0.0818429C0.0409214 11.0808 0 11.0454 0 11V2.15558C0 0.964204 0.966769 0 2.16884 0H8.68046Z" fill="white"/>
</g>
<defs>
<clipPath id="clip0_1_42">
<rect width="10.8442" height="15.0739" fill="white"/>
</clipPath>
</defs>
</svg>
