<svg width="16" height="16" viewBox="0 0 16 16" fill="none" xmlns="http://www.w3.org/2000/svg">
<g clip-path="url(#clip0_1_35)">
<path d="M0 4.0472C0.132275 3.35008 0.2574 2.65295 0.636351 2.0309C1.5015 0.618773 2.85643 0.0753722 4.4187 0.0396221C6.54583 -0.0140029 8.67653 -0.0104279 10.8072 0.0396221C12.2515 0.0753722 13.5385 0.550848 14.418 1.8021C14.9828 2.61005 15.1938 3.5324 15.2081 4.48693C15.2402 6.53183 15.2545 8.58031 15.2081 10.6252C15.1687 12.2733 14.5967 13.6783 13.0559 14.5148C12.3445 14.9009 11.5616 15.0689 10.7643 15.0797C8.66224 15.1047 6.56013 15.1261 4.45803 15.0797C2.88145 15.0439 1.51223 14.5112 0.636351 13.0848C0.2574 12.4663 0.132275 11.7656 0 11.0685V4.0472H0ZM7.62548 1.48035C6.58158 1.48035 5.53768 1.4589 4.49378 1.48392C2.86358 1.52325 1.86258 2.28472 1.56585 3.6897C1.5015 3.98643 1.45503 4.29388 1.45503 4.59775C1.4443 6.57473 1.41928 8.55171 1.4586 10.5287C1.49793 12.4949 2.49178 13.546 4.3901 13.6175C6.53153 13.6961 8.67653 13.689 10.818 13.6175C12.3981 13.5639 13.3383 12.806 13.6386 11.4403C13.6923 11.1972 13.7423 10.947 13.7459 10.6967C13.7566 8.44446 13.8817 6.18863 13.678 3.93995C13.5564 2.60648 12.6662 1.73775 11.3363 1.55542C10.103 1.3874 8.86244 1.50537 7.62548 1.48035Z" fill="white"/>
<path d="M11.5508 7.57902C11.5437 9.70258 9.7812 11.4472 7.61833 11.4722C5.4483 11.4972 3.6465 9.70615 3.65365 7.52897C3.6608 5.38755 5.48762 3.59289 7.62548 3.63579C9.82053 3.67869 11.5544 5.4233 11.5473 7.57902H11.5508ZM10.0887 7.56115C10.0887 6.2098 8.97683 5.10155 7.61118 5.0944C6.25268 5.08725 5.12297 6.19907 5.1194 7.54685C5.1194 8.8982 6.23122 10.0065 7.59688 10.0136C8.95538 10.0208 10.0851 8.90892 10.0887 7.56115Z" fill="white"/>
<path d="M11.6581 2.60617C12.18 2.59902 12.6233 3.03159 12.6233 3.54997C12.6233 4.04332 12.1943 4.46874 11.6903 4.48304C11.1683 4.49734 10.7143 4.07192 10.7071 3.55712C10.6964 3.03874 11.1254 2.61332 11.6617 2.60617H11.6581Z" fill="white"/>
</g>
<defs>
<clipPath id="clip0_1_35">
<rect width="15.2367" height="15.1044" fill="white"/>
</clipPath>
</defs>
</svg>
