<svg width="16" height="16" viewBox="0 0 16 16" fill="none" xmlns="http://www.w3.org/2000/svg">
<g clip-path="url(#clip0_1_26)">
<path d="M3.34571 1.67506C3.34571 2.59634 2.75944 3.35012 1.67065 3.35012C0.670024 3.34571 0 2.59194 0 1.75881C0 0.837531 0.670024 0 1.67506 0C2.6801 0 3.35012 0.753778 3.35012 1.67506H3.34571Z" fill="white"/>
<path d="M3.34571 4.18326H0V15.0579H3.34571V4.18326Z" fill="white"/>
<path d="M11.3772 4.35075C9.61838 4.35075 8.61775 5.35579 8.19899 6.02581H8.11524L7.94773 4.60201H4.93703C4.93703 5.52329 5.02078 6.60768 5.02078 7.86397V15.0579H8.36649V9.12027C8.36649 8.78526 8.36649 8.534 8.45025 8.28274C8.70151 7.69647 9.12027 6.94269 10.0416 6.94269C11.2141 6.94269 11.7166 7.94773 11.7166 9.28337V15.0535H15.0623V8.8646C15.0623 5.77015 13.471 4.34634 11.3816 4.34634L11.3772 4.35075Z" fill="white"/>
</g>
<defs>
<clipPath id="clip0_1_26">
<rect width="15.0579" height="15.0579" fill="white"/>
</clipPath>
</defs>
</svg>
