<svg width="14" height="17" viewBox="0 0 14 17" fill="none" xmlns="http://www.w3.org/2000/svg">
<g clip-path="url(#clip0_1_39)">
<path d="M10.9515 10.0493V14.376H1.29626V10.0493H-0.158234V15.9113H12.4033V10.0493H10.9515Z" fill="white"/>
<path d="M2.84262 13.1859H9.98828V11.824H2.84262V13.1859ZM2.9857 9.92822L9.92755 11.3977L10.2137 10.0004L3.27185 8.53092L2.9857 9.92822ZM3.89949 6.56979L10.3271 9.59592L10.9264 8.29939L4.49878 5.27326L3.89949 6.56979ZM5.68523 3.38431L11.141 7.96709L12.0548 6.87213L6.58417 2.29207L5.68388 3.38703L5.68523 3.38431ZM9.19867 0L8.05542 0.849823L12.2829 6.59975L13.4261 5.74992L9.19867 0Z" fill="white"/>
</g>
<defs>
<clipPath id="clip0_1_39">
<rect width="13.4261" height="16.0459" fill="white"/>
</clipPath>
</defs>
</svg>
