<svg width="20" height="16" viewBox="0 0 20 16" fill="none" xmlns="http://www.w3.org/2000/svg">
<g clip-path="url(#clip0_1_30)">
<path d="M13.2268 7.465C13.2357 7.50983 13.2402 7.55467 13.2357 7.60399C13.2447 7.55915 13.2447 7.50983 13.2268 7.465Z" fill="white"/>
<path d="M9.8114 0C0.168551 0 0 0.856058 0 7.55371C0 14.2514 0.168551 15.1074 9.8114 15.1074C19.4542 15.1074 19.6228 14.2514 19.6228 7.55371C19.6228 0.856058 19.4542 0 9.8114 0ZM12.9384 8.05049L8.51179 10.1884C8.15695 10.3614 7.74444 10.0997 7.74444 9.70495V5.52224C7.74444 5.13191 8.14807 4.87021 8.50292 5.03433L12.9296 7.07467C13.1026 7.15451 13.1957 7.30089 13.2268 7.46057C13.2445 7.50492 13.2445 7.55371 13.2356 7.59807C13.2223 7.77992 13.1292 7.95291 12.9384 8.04606V8.05049Z" fill="white"/>
</g>
<defs>
<clipPath id="clip0_1_30">
<rect width="19.6228" height="15.1119" fill="white"/>
</clipPath>
</defs>
</svg>
